<svg version="1.0" xmlns="http://www.w3.org/2000/svg" viewBox="0 0 1074 1080">
    <path d="M305.7.7c127.2.2 335.4.2 462.5 0C895.4.6 791.4.5 537 .5 282.6.5 178.6.6 305.7.7z" fill="#2368B3" fill-opacity=".75"/>
    <path d="M305.7 1.7c127.2.2 335.4.2 462.5 0 127.2-.1 23.2-.2-231.2-.2-254.4 0-358.4.1-231.3.2zM754.5 775c0 75.1.1 105.8.2 68.2.2-37.5.2-98.9 0-136.5-.1-37.5-.2-6.8-.2 68.3zM201.3 913.7c21.3.2 56.1.2 77.5 0 21.3-.1 3.8-.2-38.8-.2-42.6 0-60.1.1-38.7.2zm258 0c21.3.2 56.1.2 77.5 0 21.3-.1 3.8-.2-38.8-.2-42.6 0-60.1.1-38.7.2zm336 0c21.3.2 56.1.2 77.5 0 21.3-.1 3.8-.2-38.8-.2-42.6 0-60.1.1-38.7.2zm-489.6 157c127.2.2 335.4.2 462.5 0 127.2-.1 23.2-.2-231.2-.2-254.4 0-358.4.1-231.3.2z" fill="#2368B3" fill-opacity=".81"/>
    <path d="M305.7 2.7c127.2.2 335.4.2 462.5 0 127.2-.1 23.2-.2-231.2-.2-254.4 0-358.4.1-231.3.2zM753.5 775c0 75.1.1 105.8.2 68.2.2-37.5.2-98.9 0-136.5-.1-37.5-.2-6.8-.2 68.3zM201.3 914.7c21.3.2 56.1.2 77.5 0 21.3-.1 3.8-.2-38.8-.2-42.6 0-60.1.1-38.7.2zm258 0c21.3.2 56.1.2 77.5 0 21.3-.1 3.8-.2-38.8-.2-42.6 0-60.1.1-38.7.2zm336 0c21.3.2 56.1.2 77.5 0 21.3-.1 3.8-.2-38.8-.2-42.6 0-60.1.1-38.7.2zm-489.6 155c127.2.2 335.4.2 462.5 0 127.2-.1 23.2-.2-231.2-.2-254.4 0-358.4.1-231.3.2z" fill="#2367B3" fill-opacity=".94"/>
    <path d="M65 4c0 .5-1.8 1-4 1s-4 .4-4 1c0 .5-1.3 1-3 1-1.6 0-3 .4-3 1 0 .5-.9 1-2 1s-2 .4-2 1c0 .5-.8 1-1.8 1s-2.4.9-3.2 2c-.8 1.1-2.1 2-3 2-.9 0-2.2.9-3 2-.8 1.1-2 2-2.7 2C31.6 19 19 31.6 19 33.3c0 .7-.9 1.9-2 2.7-1.1.8-2 2.2-2 3.2s-.4 1.8-1 1.8c-.5 0-1 .9-1 2s-.4 2-1 2c-.5 0-1 .9-1 2s-.4 2-1 2c-.5 0-1 .9-1 2s-.4 2-1 2c-.5 0-1 1.3-1 3 0 1.6-.4 3-1 3-.5 0-1 2.2-1 5 0 2.7-.4 5-1 5-.7 0-1 156.3-1 467s.3 467 1 467c.6 0 1 2.2 1 5 0 2.7.5 5 1 5 .6 0 1 1.3 1 3 0 1.6.5 3 1 3 .6 0 1 .9 1 2s.5 2 1 2c.6 0 1 .9 1 2s.5 2 1 2c.6 0 1 .9 1 2s.5 2 1 2c.6 0 1 .8 1 1.8s.9 2.4 2 3.2c1.1.8 2 2 2 2.7 0 1.7 12.6 14.3 14.3 14.3.7 0 1.9.9 2.7 2 .8 1.1 2.1 2 3 2 .9 0 2.2.9 3 2 .8 1.1 2.2 2 3.2 2s1.8.4 1.8 1c0 .5.9 1 2 1s2 .4 2 1c0 .5 1.4 1 3 1 1.7 0 3 .4 3 1 0 .5 1.8 1 4 1s4 .4 4 1c0 .7 158 1 472 1s472-.3 472-1c0-.6 1.8-1 4-1s4-.5 4-1c0-.6 1.4-1 3-1 1.7 0 3-.5 3-1 0-.6.9-1 2-1s2-.5 2-1c0-.6.8-1 1.8-1s2.4-.9 3.2-2c.8-1.1 2.1-2 3-2 .9 0 2.2-.9 3-2 .8-1.1 2-2 2.7-2 1.7 0 14.3-12.6 14.3-14.3 0-.7.9-1.9 2-2.7 1.1-.8 2-2.2 2-3.2s.5-1.8 1-1.8c.6 0 1-.9 1-2s.5-2 1-2c.6 0 1-.9 1-2s.5-2 1-2c.6 0 1-.9 1-2s.5-2 1-2c.6 0 1-1.4 1-3 0-1.7.5-3 1-3 .6 0 1-2.3 1-5 0-2.8.5-5 1-5 .7 0 1-156.3 1-467s-.3-467-1-467c-.5 0-1-2.3-1-5 0-2.8-.4-5-1-5-.5 0-1-1.4-1-3 0-1.7-.4-3-1-3-.5 0-1-.9-1-2s-.4-2-1-2c-.5 0-1-.9-1-2s-.4-2-1-2c-.5 0-1-.9-1-2s-.4-2-1-2c-.5 0-1-.8-1-1.8s-.9-2.4-2-3.2c-1.1-.8-2-2-2-2.7 0-1.7-12.6-14.3-14.3-14.3-.7 0-1.9-.9-2.7-2-.8-1.1-2.1-2-3-2-.9 0-2.2-.9-3-2-.8-1.1-2.2-2-3.2-2s-1.8-.5-1.8-1c0-.6-.9-1-2-1s-2-.5-2-1c0-.6-1.3-1-3-1-1.6 0-3-.5-3-1 0-.6-1.8-1-4-1s-4-.5-4-1c0-.7-158-1-472-1S65 3.3 65 4zm192 144c0 .5 2.3 1 5 1 2.8 0 5 .4 5 1 0 .5 1.4 1 3 1 1.7 0 3 .4 3 1 0 .5.9 1 2 1s2 .4 2 1c0 .5 1.3 1 2.8 1 1.6 0 3.4.8 4.2 2 .8 1.1 2.2 2 3.2 2s1.8.4 1.8 1c0 .5.7 1 1.6 1 .9 0 2.9 1.3 4.4 3 1.5 1.6 3.3 3 3.9 3 1.5 0 14.1 12.6 14.1 14.1 0 .6 1.4 2.4 3 3.9 1.7 1.5 3 3.5 3 4.4 0 .9.5 1.6 1 1.6.6 0 1 .8 1 1.8s.9 2.4 2 3.2c1.2.8 2 2.6 2 4.2 0 1.5.5 2.8 1 2.8.6 0 1 .9 1 2s.5 2 1 2c.6 0 1 1.3 1 3 0 1.6.5 3 1 3 .6 0 1 2.2 1 5 0 2.7.5 5 1 5 .6 0 1 6.3 1 17s-.4 17-1 17c-.5 0-1 2.2-1 5 0 2.7-.4 5-1 5-.5 0-1 1.3-1 3 0 1.6-.4 3-1 3-.5 0-1 .9-1 2s-.4 2-1 2c-.5 0-1 1.3-1 3 0 1.6-.4 3-1 3-.5 0-1 .8-1 1.8s-.9 2.4-2 3.2c-1.1.8-2 2.1-2 3 0 .9-.9 2.2-2 3-1.1.8-2 2-2 2.7 0 1.7-16.6 18.3-18.3 18.3-.7 0-1.9.9-2.7 2-.8 1.1-2.1 2-3 2-.9 0-2.2.9-3 2-.8 1.1-2.2 2-3.2 2s-1.8.4-1.8 1c0 .5-.9 1-2 1s-2 .4-2 1c0 .5-1.3 1-3 1-1.6 0-3 .4-3 1 0 .5-1.3 1-3 1-1.6 0-3 .4-3 1 0 .5-1.8 1-4 1s-4 .4-4 1-7 1-19 1-19-.4-19-1-1.8-1-4-1-4-.5-4-1c0-.6-1.3-1-3-1-1.6 0-3-.5-3-1 0-.6-1.3-1-3-1-1.6 0-3-.5-3-1 0-.6-.9-1-2-1s-2-.5-2-1c0-.6-.8-1-1.8-1s-2.4-.9-3.2-2c-.8-1.1-2.1-2-3-2-.9 0-2.2-.9-3-2-.8-1.1-2-2-2.7-2-1.7 0-18.3-16.6-18.3-18.3 0-.7-.9-1.9-2-2.7-1.1-.8-2-2.1-2-3 0-.9-.9-2.2-2-3-1.1-.8-2-2.2-2-3.2s-.4-1.8-1-1.8c-.5 0-1-.9-1-2s-.4-2-1-2c-.5 0-1-1.4-1-3 0-1.7-.4-3-1-3-.5 0-1-1.4-1-3 0-1.7-.4-3-1-3-.5 0-1-1.8-1-4s-.4-4-1-4-1-7-1-19 .4-19 1-19 1-1.8 1-4 .5-4 1-4c.6 0 1-1.4 1-3 0-1.7.5-3 1-3 .6 0 1-1.4 1-3 0-1.7.5-3 1-3 .6 0 1-.9 1-2s.5-2 1-2c.6 0 1-.8 1-1.8s.9-2.4 2-3.2c1.1-.8 2-2.1 2-3 0-.9.9-2.2 2-3 1.1-.8 2-2 2-2.7 0-1.7 16.6-18.3 18.3-18.3.7 0 1.9-.9 2.7-2 .8-1.1 2.1-2 3-2 .9 0 2.2-.9 3-2 .8-1.1 2.2-2 3.2-2s1.8-.5 1.8-1c0-.6 1.4-1 3-1 1.7 0 3-.5 3-1 0-.6.9-1 2-1s2-.5 2-1c0-.6 1.4-1 3-1 1.7 0 3-.5 3-1 0-.6 2.3-1 5-1 2.8 0 5-.5 5-1 0-.6 6.3-1 17-1s17 .4 17 1zm480 240c0 .6 5 1 13 1s13 .4 13 1 3 1 7 1 7 .4 7 1c0 .5 1.8 1 4 1s4 .4 4 1c0 .5 1.8 1 4 1s4 .4 4 1c0 .5 1.8 1 4 1s4 .4 4 1c0 .5 1.4 1 3 1 1.7 0 3 .4 3 1 0 .5 1.4 1 3 1 1.7 0 3 .4 3 1 0 .5.9 1 2 1s2 .4 2 1c0 .5.9 1 2 1s2 .4 2 1c0 .5.9 1 2 1s2 .4 2 1c0 .5.9 1 2 1s2 .4 2 1c0 .5.9 1 2 1s2 .4 2 1c0 .5.8 1 1.8 1s2.4.9 3.2 2c.8 1.1 2.1 2 3 2 .9 0 2.2.9 3 2 .8 1.1 2 2 2.7 2 1.6 0 26.3 24.5 26.3 26.1 0 .6 1.4 2.4 3 3.9 1.7 1.5 3 3.5 3 4.4 0 .9.5 1.6 1 1.6.6 0 1 .8 1 1.8s.9 2.4 2 3.2c1.1.8 2 2.2 2 3.2s.5 1.8 1 1.8c.6 0 1 .9 1 2s.5 2 1 2c.6 0 1 .9 1 2s.5 2 1 2c.6 0 1 .9 1 2s.5 2 1 2c.6 0 1 1.3 1 3 0 1.6.5 3 1 3 .6 0 1 .9 1 2s.5 2 1 2c.6 0 1 1.3 1 3 0 1.6.5 3 1 3 .6 0 1 1.3 1 3 0 1.6.5 3 1 3 .6 0 1 1.3 1 3 0 1.6.5 3 1 3 .6 0 1 1.8 1 4s.5 4 1 4c.6 0 1 1.8 1 4s.5 4 1 4c.6 0 1 2.2 1 5 0 2.7.5 5 1 5 .6 0 1 2.7 1 6s.4 6 1 6 1 3 1 7 .4 7 1 7 1 4.7 1 12 .4 12 1 12c.7 0 1 56 1 166v166H753V765c0-99.3-.3-150-1-150-.6 0-1-3-1-7s-.4-7-1-7c-.5 0-1-2.3-1-5 0-2.8-.4-5-1-5-.5 0-1-1.4-1-3 0-1.7-.4-3-1-3-.5 0-1-1.4-1-3 0-1.7-.4-3-1-3-.5 0-1-1.4-1-3 0-1.7-.4-3-1-3-.5 0-1-.9-1-2s-.4-2-1-2c-.5 0-1-.9-1-2s-.4-2-1-2c-.5 0-1-.7-1-1.6 0-.9-1.3-2.9-3-4.4-1.6-1.5-3-3.3-3-3.9 0-1.6-8.7-10.1-10.3-10.1-.7 0-1.9-.9-2.7-2-.8-1.1-2.2-2-3.2-2s-1.8-.5-1.8-1c0-.6-.9-1-2-1s-2-.5-2-1c0-.6-.9-1-2-1s-2-.5-2-1c0-.6-1.3-1-3-1-1.6 0-3-.5-3-1 0-.6-2.2-1-5-1-2.7 0-5-.5-5-1 0-.6-6.7-1-18-1s-18 .4-18 1c0 .5-2.2 1-5 1-2.7 0-5 .4-5 1 0 .5-1.3 1-3 1-1.6 0-3 .4-3 1 0 .5-.9 1-2 1s-2 .4-2 1c0 .5-1.3 1-3 1-1.6 0-3 .4-3 1 0 .5-.8 1-1.8 1s-2.4.9-3.2 2c-.8 1.1-2 2-2.7 2-1.7 0-18.3 16.6-18.3 18.3 0 .7-.9 1.9-2 2.7-1.1.8-2 2.2-2 3.2s-.4 1.8-1 1.8c-.5 0-1 .9-1 2s-.4 2-1 2c-.5 0-1 .9-1 2s-.4 2-1 2c-.5 0-1 .9-1 2s-.4 2-1 2c-.5 0-1 1.3-1 3 0 1.6-.4 3-1 3-.5 0-1 1.3-1 3 0 1.6-.4 3-1 3-.5 0-1 1.8-1 4s-.4 4-1 4-1 2.7-1 6-.4 6-1 6-1 3.7-1 9-.4 9-1 9c-.7 0-1 47.7-1 141v141H417V401h156v33c0 21.3.4 33 1 33s1-.8 1-1.8.9-2.4 2-3.2c1.1-.8 2-2.1 2-2.8 0-.8 1.4-2.7 3-4.2 1.7-1.5 3-3.3 3-3.9 0-1.6 26.7-28.1 28.3-28.1.7 0 1.9-.9 2.7-2 .8-1.1 2.1-2 2.8-2 .8 0 2.7-1.4 4.2-3 1.5-1.7 3.5-3 4.4-3 .9 0 1.6-.5 1.6-1 0-.6.9-1 2-1s2-.5 2-1c0-.6.8-1 1.8-1s2.4-.9 3.2-2c.8-1.1 2.2-2 3.2-2s1.8-.5 1.8-1c0-.6 1.4-1 3-1 1.7 0 3-.5 3-1 0-.6.9-1 2-1s2-.5 2-1c0-.6 1.4-1 3-1 1.7 0 3-.5 3-1 0-.6.9-1 2-1s2-.5 2-1c0-.6 1.8-1 4-1s4-.5 4-1c0-.6 1.8-1 4-1s4-.5 4-1c0-.6 2.3-1 5-1 2.8 0 5-.5 5-1 0-.6 3.3-1 8-1s8-.4 8-1 6-1 16-1 16 .4 16 1zM321 658v257H159V401h162v257z" fill="#2367B3"/>
    <path d="M201.3 403.7c21.3.2 56.1.2 77.5 0 21.3-.1 3.8-.2-38.8-.2-42.6 0-60.1.1-38.7.2zm256.5 0c20.4.2 54 .2 74.5 0 20.4-.1 3.7-.2-37.3-.2s-57.7.1-37.2.2zM161.5 658c0 139.4.1 196.5.2 126.7.2-69.7.2-183.7 0-253.5-.1-69.7-.2-12.6-.2 126.8zm415 118c0 74.5.1 105 .2 67.8.2-37.3.2-98.3 0-135.5-.1-37.3-.2-6.8-.2 67.7zm336 46c0 49.2.1 69.4.2 44.7.2-24.6.2-64.8 0-89.5-.1-24.6-.2-4.4-.2 44.8z" fill="#1F6AB4" fill-opacity=".19"/>
</svg>
